<mxfile host="drawio-plugin" modified="2021-12-05T14:33:16.482Z" agent="5.0 (Macintosh; Intel Mac OS X 12_0_1) AppleWebKit/537.36 (KHTML, like Gecko) Chrome/89.0.4389.114 Safari/537.36" etag="P0iUZhXg_j_Nwo7a_Whk" version="14.7.4" type="embed"><diagram id="23iRSUPoRavnBvh4doch" name="Page-1"><mxGraphModel dx="1055" dy="837" grid="1" gridSize="10" guides="1" tooltips="1" connect="1" arrows="1" fold="1" page="1" pageScale="1" pageWidth="827" pageHeight="1169" math="0" shadow="0"><root><mxCell id="0"/><mxCell id="1" parent="0"/><mxCell id="3" value="" style="rounded=0;whiteSpace=wrap;html=1;fillColor=none;" vertex="1" parent="1"><mxGeometry x="250" y="250" width="270" height="390" as="geometry"/></mxCell><mxCell id="8" value="" style="rounded=0;whiteSpace=wrap;html=1;fontSize=24;fillColor=none;dashed=1;" vertex="1" parent="1"><mxGeometry x="280" y="310" width="200" height="190" as="geometry"/></mxCell><mxCell id="11" style="rounded=0;orthogonalLoop=1;jettySize=auto;html=1;entryX=0;entryY=0.5;entryDx=0;entryDy=0;fontSize=24;endArrow=none;endFill=0;" edge="1" parent="1" source="2" target="5"><mxGeometry relative="1" as="geometry"/></mxCell><mxCell id="12" style="edgeStyle=none;rounded=0;orthogonalLoop=1;jettySize=auto;html=1;entryX=0;entryY=0.5;entryDx=0;entryDy=0;fontSize=24;endArrow=none;endFill=0;" edge="1" parent="1" source="2" target="6"><mxGeometry relative="1" as="geometry"/></mxCell><mxCell id="13" style="edgeStyle=none;rounded=0;orthogonalLoop=1;jettySize=auto;html=1;entryX=0;entryY=0.5;entryDx=0;entryDy=0;fontSize=24;endArrow=none;endFill=0;" edge="1" parent="1" source="2" target="7"><mxGeometry relative="1" as="geometry"/></mxCell><mxCell id="2" value="採用担当者" style="shape=umlActor;verticalLabelPosition=bottom;verticalAlign=top;html=1;outlineConnect=0;" vertex="1" parent="1"><mxGeometry x="120" y="400" width="30" height="60" as="geometry"/></mxCell><mxCell id="4" value="採用管理システム" style="text;html=1;strokeColor=none;fillColor=none;align=center;verticalAlign=middle;whiteSpace=wrap;rounded=0;fontSize=24;fontStyle=5" vertex="1" parent="1"><mxGeometry x="280" y="270" width="200" height="20" as="geometry"/></mxCell><mxCell id="5" value="&lt;font style=&quot;font-size: 16px&quot;&gt;採用選考を登録する&lt;/font&gt;" style="rounded=1;whiteSpace=wrap;html=1;fontSize=24;fillColor=none;" vertex="1" parent="1"><mxGeometry x="300" y="330" width="160" height="60" as="geometry"/></mxCell><mxCell id="6" value="&lt;font style=&quot;font-size: 16px&quot;&gt;面接を設定する&lt;/font&gt;" style="rounded=1;whiteSpace=wrap;html=1;fontSize=24;fillColor=none;" vertex="1" parent="1"><mxGeometry x="300" y="410" width="160" height="60" as="geometry"/></mxCell><mxCell id="7" value="&lt;font style=&quot;font-size: 16px&quot;&gt;候補者にメールを送信する&lt;/font&gt;" style="rounded=1;whiteSpace=wrap;html=1;fontSize=24;fillColor=none;" vertex="1" parent="1"><mxGeometry x="305" y="525" width="160" height="60" as="geometry"/></mxCell><mxCell id="15" style="edgeStyle=none;rounded=0;orthogonalLoop=1;jettySize=auto;html=1;entryX=0.785;entryY=-0.008;entryDx=0;entryDy=0;entryPerimeter=0;fontSize=24;endArrow=none;endFill=0;dashed=1;" edge="1" parent="1" source="14" target="3"><mxGeometry relative="1" as="geometry"/></mxCell><mxCell id="14" value="&lt;font style=&quot;font-size: 18px&quot;&gt;開発するシステム - ①&lt;/font&gt;" style="text;html=1;strokeColor=none;fillColor=none;align=center;verticalAlign=middle;whiteSpace=wrap;rounded=0;dashed=1;fontSize=24;" vertex="1" parent="1"><mxGeometry x="550" y="180" width="220" height="20" as="geometry"/></mxCell><mxCell id="18" style="edgeStyle=none;rounded=0;orthogonalLoop=1;jettySize=auto;html=1;entryX=1;entryY=0.25;entryDx=0;entryDy=0;dashed=1;fontSize=24;endArrow=none;endFill=0;" edge="1" parent="1" source="16" target="8"><mxGeometry relative="1" as="geometry"/></mxCell><mxCell id="16" value="&lt;font style=&quot;font-size: 18px&quot;&gt;初回ドメインモデル図作成範囲 - ②&lt;/font&gt;" style="text;html=1;strokeColor=none;fillColor=none;align=left;verticalAlign=middle;whiteSpace=wrap;rounded=0;dashed=1;fontSize=24;" vertex="1" parent="1"><mxGeometry x="600" y="290" width="180" height="50" as="geometry"/></mxCell></root></mxGraphModel></diagram></mxfile>